<svg xmlns="http://www.w3.org/2000/svg" viewBox="0 0 500 500"><title>7.Productivity</title><g id="Layer_2" data-name="Layer 2"><polygon points="357.38 283.41 357.38 236.96 337.1 236.96 381.87 184.59 412 236.39 396.61 236.39 396.61 288.2 383.84 288.2 369.2 303.22 357.38 283.41" fill="#3fe2fd"/><path d="M134.57,197.87c-2.46-2.93-7-3.3-10.56-1.82s-6.19,4.44-8.58,7.43c-1.73,2.17-3.43,4.55-3.82,7.3-.76,5.31,3.37,9.86,6.13,14.45a31,31,0,0,1-20.32,46.3c-5.28,1.09-12,1.65-13.84,6.73-1.48,4.11,1.69,8.58,5.51,10.68s8.3,2.71,12.29,4.48c10.2,4.54,15.79,17.44,12.13,28-3.11,9-7,18.65-2.79,27.18,1.75,3.56,4.71,6.35,7.61,9.06a8.08,8.08,0,0,0,2.9,2,8,8,0,0,0,4.08-.18c8.87-2,17.91-4,27-3.12s18.25,5.14,22.74,13c3.15,5.53,3.79,12.41,7.88,17.29,5.91,7,16.47,7.27,25.65,6.92a26.25,26.25,0,0,1-48.16-7.1c-1-4.25-1-8.71-2.12-12.92s-3.94-8.43-8.2-9.39c-6.95-1.56-12.27,5.78-18.36,9.48-9.94,6-24,1.48-30.62-8.05S94.24,343.16,98,332.16c1.78-5.17,4.39-10.52,3.17-15.85-1.1-4.76-5.05-8.31-9.13-11a55.72,55.72,0,0,0-12.9-6.25c-2.36-.8-4.87-1.48-6.71-3.15-2.7-2.46-3.33-6.42-3.51-10.07A67.85,67.85,0,0,1,70.23,269a14.24,14.24,0,0,1,2.3-6c1.75-2.28,4.57-3.41,7.22-4.54a120.85,120.85,0,0,0,22.84-12.89,15.51,15.51,0,0,0,4.43-4.22c3.09-5,.22-11.57-3.54-16.09S94.91,216.7,93.63,211c-1.08-4.81.62-9.88,3.34-14,4.26-6.42,11.28-11.13,19-11.86S130.56,191.29,134.57,197.87Z" fill="#3fe2fd"/><path d="M216.6,228s27.59,8.44,37.16,36.6c7.4,21.75-1.12,61.94-46.74,66.45,0,0,45.62-35.48,27.6-69.27Z" fill="#3fe2fd"/></g><g id="Layer_1" data-name="Layer 1"><path d="M308.67,322c-1.73,3.22-3.49,6.69-5.22,10.31a2.07,2.07,0,0,0,1.05,3c1.27.65,2.61,1.32,4.11,2,6.27,3,9.65,8.48,9.27,15.11s-4.37,11.87-10.95,14.14l-1.62.54c-1.27.42-2.46.82-3.5,1.27a2,2,0,0,0-1.18,2.63c1.16,3.54,2.35,7,3.54,10.41a2,2,0,0,0,2.49,1.37c1.35-.32,2.79-.82,4.32-1.34L312,381a15.43,15.43,0,0,1,16.86,4.24c4.43,4.76,5.3,11.29,2.34,17.46-.37.78-.76,1.56-1.15,2.33-.31.62-.63,1.24-.93,1.86-1,2-.31,2.81,1.14,3.53,3.45,1.73,6.63,3.29,9.74,4.78a2.41,2.41,0,0,0,3.55-1.25c.32-.61.62-1.23.92-1.85.48-1,1-2.05,1.58-3.13a15,15,0,0,1,13.43-8.06c.46,0,.94,0,1.41.06a15.15,15.15,0,0,1,13.44,10c.4,1,.73,2.06,1.06,3s.58,1.76.88,2.56a2.23,2.23,0,0,0,2.93,1.47c3.54-1.15,7-2.34,10.36-3.53a2,2,0,0,0,1.39-2.71c-.24-.85-.55-1.77-.89-2.74s-.67-1.93-1-3a15.35,15.35,0,0,1,4.57-16.31,15.16,15.16,0,0,1,16.83-2.57c1.19.52,2.3,1.08,3.36,1.61l1.71.84c.44.21.89.43,2.51-.11a2.94,2.94,0,0,0,.75-1l.71-1.42c1.45-2.87,2.95-5.84,4.32-8.76a2.17,2.17,0,0,0-1.12-3.13c-.79-.41-1.59-.79-2.4-1.17s-1.59-.75-2.38-1.15a14.89,14.89,0,0,1-8.54-14.59,15.07,15.07,0,0,1,10-13.81c1.07-.41,2.1-.76,3.1-1.09l2.1-.72c1.91-.69,1.73-1.33,1.47-2.29a98.6,98.6,0,0,0-4-11.65c-.33-.8-.54-1.29-2.26-.73l-1.68.56a48.81,48.81,0,0,1-4.69,1.43A15.55,15.55,0,0,1,396,308.3c.4-.82.81-1.64,1.23-2.45s.84-1.64,1.23-2.47a2,2,0,0,0-.95-3c-3.54-1.83-7-3.54-10.41-5.08a2.31,2.31,0,0,0-3.06,1.1c-.63,1.16-1.23,2.4-1.85,3.71l-.22.47a15.38,15.38,0,0,1-15.07,9.17c-6.63-.29-11.78-4.28-14.15-11-.19-.53-.37-1.06-.55-1.6a33.43,33.43,0,0,0-1.37-3.6,2.05,2.05,0,0,0-2.64-1c-3.58,1.17-7.09,2.36-10.41,3.54a2,2,0,0,0-1.42,2.23,31.6,31.6,0,0,0,1.16,4c.25.72.49,1.45.72,2.18a15.21,15.21,0,0,1-4.53,16.38,15.05,15.05,0,0,1-16.89,2.52c-1-.43-1.92-.9-2.87-1.38-.68-.34-1.36-.68-2.05-1A2.32,2.32,0,0,0,308.67,322ZM330.72,339a36.81,36.81,0,1,1-1.82,28.12A36.53,36.53,0,0,1,330.72,339Z" fill="none"/><path d="M302.36,353.27c1.48-.52,1.5-.91,1.55-1.71s.06-1-1.29-1.65c-1.65-.78-3.14-1.52-4.56-2.25a17.37,17.37,0,0,1-3.14-2.1,21.86,21.86,0,0,1-2.33,12.09,16.31,16.31,0,0,1,3.68-2.2c1.6-.69,3.14-1.2,4.63-1.7Z" fill="none"/><path d="M81.6,297.66a81.56,81.56,0,0,0,8.24.23h1.92c9.37,0,16.64,4.7,20.45,13.21,3.74,8.36,2,17.15-4.84,24.1-1,1-2,2.05-3.08,3.07-.87.85-1.73,1.7-2.59,2.57-4.23,4.28-4.27,9.16-.11,13.38,4.67,4.72,9,9,13.24,13.18,4,3.93,9.28,3.92,13.41,0,.88-.85,1.75-1.72,2.61-2.6,1.3-1.32,2.64-2.68,4.1-4a21,21,0,0,1,14.26-5.85,22.21,22.21,0,0,1,8.89,1.94c8.26,3.58,13,10.43,13.26,19.29.06,1.81,0,3.58,0,5.29s0,3.31,0,4.89a8.76,8.76,0,0,0,8.86,8.81c6.45.09,12.81.09,18.91,0a8.46,8.46,0,0,0,8.67-8.36c.09-1.67.08-3.39.07-5.22s0-3.41,0-5.2a21.22,21.22,0,0,1,13.4-19.54c8.23-3.53,16.54-2,23.39,4.21,1.55,1.42,3,2.87,4.37,4.28.79.8,1.57,1.59,2.38,2.37,1.69,1.65,3.61,2.62,8,2.63a8.39,8.39,0,0,0,4.92-2.59l2-1.93c3.95-3.88,8-7.89,11.91-11.91,3.67-3.79,3.64-8.75-.08-12.62-1.07-1.11-2.19-2.19-3.37-3.33s-2.12-2.06-3.16-3.12c-6.39-6.52-8.07-14.69-4.74-23,3.43-8.54,10.32-13.43,19.42-13.77,1.86-.06,3.67-.05,5.42,0,1.31,0,2.62,0,3.93,0,2,0,8.08-.18,8.54-7.59a171.24,171.24,0,0,0,0-21.73c-.3-4.64-3.05-7-8.17-7.12-1,0-2.08,0-3.12,0-2.55,0-5.19,0-7.93-.25-8.69-.81-15.14-5.9-18.17-14.31a20.49,20.49,0,0,1,4.84-22.25c1.06-1.09,2.16-2.15,3.25-3.21s2.39-2.31,3.49-3.46c3.64-3.81,3.68-8.65.12-12.36-4.79-5-9.59-9.72-14.26-14.14a9,9,0,0,0-12.4.05c-1.77,1.63-3.47,3.37-5.26,5.21l-.6.61c-6.76,6.91-15.32,8.84-24.11,5.42-8.6-3.36-13.61-11-13.75-21,0-.94,0-1.89,0-2.84a59.46,59.46,0,0,0-.27-7.21,8.53,8.53,0,0,0-8.62-7.54c-6.52-.07-12.9-.07-19,0a8.25,8.25,0,0,0-8.42,7.14,58.07,58.07,0,0,0-.35,7.76c0,1.28,0,2.55,0,3.83-.24,9.05-5,16-13.37,19.61s-16.63,2-23.42-4.29c-1.31-1.22-2.55-2.48-3.75-3.69-.95-1-1.91-1.92-2.88-2.85a9,9,0,0,0-12.61-.21c-4.7,4.37-9.39,9-14.33,14-3.56,3.64-3.54,8.6,0,12.33,1.75,1.82,3.61,3.68,5.67,5.68,7.12,6.89,9.1,15.48,5.58,24.17s-11,13.73-21,13.78H88.57c-2.39,0-4.65,0-6.8.13a8.43,8.43,0,0,0-8,8.56c-.08,6.34-.08,12.72,0,18.95A8.42,8.42,0,0,0,81.6,297.66Zm67.17-59.09a57.61,57.61,0,0,1,41-16.92h.09a58,58,0,1,1-.19,116h-.17a58.06,58.06,0,0,1-40.7-99.11Z" fill="none"/><path d="M189.51,323.68h.13a44.13,44.13,0,0,0,44.15-43.87,44.11,44.11,0,0,0-44-44.16h-.07a44,44,0,0,0-.23,88Z" fill="none"/><path d="M291.69,312c-1.68,0-3.27,0-4.82,0-3.52.14-5.59,1.62-6.94,5-1.26,3.15-.76,5.48,1.74,8,.95,1,1.92,1.91,2.9,2.86,1.22,1.18,2.48,2.4,3.72,3.69.32.34.61.69.91,1a16.3,16.3,0,0,1,1.62-6.34c1.82-3.83,3.68-7.51,5.53-10.92a16.44,16.44,0,0,1,2.61-3.6A28.19,28.19,0,0,1,296,312C294.57,312,293.13,312,291.69,312Z" fill="none"/><path d="M370.89,376.9A22.83,22.83,0,0,0,385.27,348a22.76,22.76,0,1,0-14.38,28.86Z" fill="none"/><path d="M80.26,311.6a95.69,95.69,0,0,0,9.64.29h1.85c3.89,0,6.12,1.43,7.68,4.94.86,1.9,1.57,4.87-2.06,8.57-1,1-1.92,1.93-2.89,2.89s-1.84,1.8-2.74,2.71c-9.64,9.76-9.68,23.35-.11,33.05,4.72,4.79,9.11,9.16,13.42,13.37,9.44,9.22,23.27,9.25,32.87.07,1-.95,2-1.93,2.91-2.9,1.21-1.24,2.36-2.4,3.53-3.47,2.6-2.35,5-2.78,8.18-1.42s4.71,3.48,4.83,6.9c0,1.52,0,3.07,0,4.72s0,3.62,0,5.5a22.78,22.78,0,0,0,22.64,22.31c3.28.05,6.55.07,9.76.07s6.45,0,9.58-.07a22.36,22.36,0,0,0,22.43-21.61c.11-2.08.1-4.1.09-6,0-1.59,0-3.1,0-4.57.15-3.64,1.62-5.8,4.93-7.23s5.62-.87,8.43,1.69c1.28,1.17,2.53,2.43,3.85,3.77.85.86,1.7,1.72,2.56,2.57,4.62,4.5,10.2,6.6,17.56,6.6h.39c5-.08,10.41-2.55,14.54-6.61l2-1.93c3.78-3.71,7.67-7.56,11.47-11.46a16.1,16.1,0,0,0-.34,11c1.2,3.64,2.42,7.25,3.65,10.72a16.09,16.09,0,0,0,18.9,10.33,56.42,56.42,0,0,0,5.66-1.73l1-.34c1.06-.36,1.36-.29,2.1.51.31.33.58.62,0,1.87-.34.7-.69,1.4-1,2.09l-1,2.05c-4.16,8.59-1,17.91,7.47,22.16,3.53,1.77,6.79,3.37,10,4.89a16.45,16.45,0,0,0,22-7.42c.38-.74.74-1.48,1.1-2.23s.82-1.69,1.23-2.43.7-.89,1.46-.83c1.07.09,1.2.32,1.47,1s.59,1.66.86,2.5c.34,1,.69,2.05,1.1,3.14a16.19,16.19,0,0,0,15.16,10.63,16.65,16.65,0,0,0,5.16-.82c3.68-1.19,7.3-2.42,10.76-3.66a16.09,16.09,0,0,0,10.16-19.68c-.35-1.26-.75-2.42-1.14-3.53-.27-.8-.55-1.6-.79-2.41a1.44,1.44,0,0,1,.52-1.92c.5-.45.71-.64,1.85-.14.86.37,1.76.82,2.7,1.3.65.32,1.29.64,1.95.95,4.13,2,8.5,2.11,13.35.41l0,0a15.62,15.62,0,0,0,8.41-7.82l.71-1.41c1.49-3,3-6,4.47-9.08a16.14,16.14,0,0,0-7.34-21.53c-.94-.49-1.9-.94-2.86-1.39-.68-.33-1.37-.65-2-1-.92-.46-.91-.63-.87-1.34.05-1.07.27-1.2,1-1.48s1.69-.61,2.54-.89,1.64-.55,2.46-.84c8.38-3.06,12.47-10.74,10.19-19.12a111.81,111.81,0,0,0-4.54-13.33c-3.27-7.9-11.1-11.4-19.49-8.71l-1.93.65c-1.21.41-2.35.8-3.39,1.05-.6.14-.84.2-1.5-.62-.5-.63-.52-.78-.17-1.5s.7-1.42,1.06-2.12c.5-1,1-2,1.46-2.94a16.06,16.06,0,0,0-7.22-21.38c-3.73-1.92-7.43-3.72-11-5.36a16.25,16.25,0,0,0-21.21,7.15c-.8,1.48-1.5,2.94-2.17,4.35l-.22.46c-.62,1.29-.95,1.27-1.82,1.24-.52,0-1-.05-1.58-1.65l-.48-1.42a44.92,44.92,0,0,0-2-5.2,16,16,0,0,0-19.6-8.25c-3.68,1.21-7.29,2.43-10.72,3.65a16,16,0,0,0-10.51,18,43.37,43.37,0,0,0,1.66,5.86c.21.62.42,1.24.62,1.86.26.85.25,1.1-.54,1.81-.53.48-.7.64-1.77.16-.8-.36-1.59-.76-2.38-1.15s-1.59-.79-2.41-1.17a16.81,16.81,0,0,0-6.87-1.57,21.52,21.52,0,0,0,7.33-15.46,186.1,186.1,0,0,0,0-23.5c-.78-12.07-9.38-20-21.91-20.22-1.13,0-2.26,0-3.39,0-2.32,0-4.51,0-6.58-.18-3.24-.31-5.13-1.84-6.31-5.12a6.63,6.63,0,0,1,1.68-7.72c1-1,2-2,3-2.94,1.27-1.23,2.58-2.5,3.87-3.84,8.85-9.26,8.89-22.61.08-31.75-4.94-5.13-9.89-10-14.71-14.6a22.87,22.87,0,0,0-31.53-.06c-2,1.87-3.94,3.82-5.78,5.71l-.59.6c-2.85,2.92-5.47,3.55-9,2.16-2.21-.86-4.75-2.56-4.83-8.12,0-.88,0-1.76,0-2.65a68.5,68.5,0,0,0-.38-8.94,22.51,22.51,0,0,0-22.35-19.82c-6.63-.07-13.13-.07-19.3,0A22.36,22.36,0,0,0,158,169.41a69,69,0,0,0-.49,9.71c0,1.16,0,2.33,0,3.49-.09,3.6-1.51,5.66-4.89,7.11-3.2,1.37-5.61.89-8.34-1.66-1.12-1-2.21-2.15-3.37-3.31s-2.09-2.11-3.16-3.13a23,23,0,0,0-31.79-.34c-4.88,4.53-9.73,9.27-14.83,14.5a22.51,22.51,0,0,0,0,31.8c1.87,1.95,3.85,3.93,6,6,3.74,3.62,3.33,6.4,2.34,8.86-1.44,3.55-3.77,5-8.06,5H88.67c-2.58,0-5.25,0-8,.18A22.55,22.55,0,0,0,59.8,270c-.08,6.46-.08,13,0,19.29A22.34,22.34,0,0,0,80.26,311.6Zm212.33,46a21.86,21.86,0,0,0,2.33-12.09,17.37,17.37,0,0,0,3.14,2.1c1.42.73,2.91,1.47,4.56,2.25,1.35.64,1.33,1,1.29,1.65s-.07,1.19-1.55,1.71l-1.46.48c-1.49.5-3,1-4.63,1.7A16.31,16.31,0,0,0,292.59,357.65ZM313.93,322c.95.48,1.9.95,2.87,1.38a15.05,15.05,0,0,0,16.89-2.52,15.21,15.21,0,0,0,4.53-16.38c-.23-.73-.47-1.46-.72-2.18a31.6,31.6,0,0,1-1.16-4,2,2,0,0,1,1.42-2.23c3.32-1.18,6.83-2.37,10.41-3.54a2.05,2.05,0,0,1,2.64,1,33.43,33.43,0,0,1,1.37,3.6c.18.54.36,1.07.55,1.6,2.37,6.67,7.52,10.66,14.15,11A15.38,15.38,0,0,0,382,300.56l.22-.47c.62-1.31,1.22-2.55,1.85-3.71a2.31,2.31,0,0,1,3.06-1.1c3.37,1.54,6.87,3.25,10.41,5.08a2,2,0,0,1,.95,3c-.39.83-.81,1.65-1.23,2.47s-.83,1.63-1.23,2.45a15.55,15.55,0,0,0,17.54,21.79,48.81,48.81,0,0,0,4.69-1.43l1.68-.56c1.72-.56,1.93-.07,2.26.73a98.6,98.6,0,0,1,4,11.65c.26,1,.44,1.6-1.47,2.29l-2.1.72c-1,.33-2,.68-3.1,1.09a15.07,15.07,0,0,0-10,13.81A14.89,14.89,0,0,0,418,373c.79.4,1.58.78,2.38,1.15s1.61.76,2.4,1.17a2.17,2.17,0,0,1,1.12,3.13c-1.37,2.92-2.87,5.89-4.32,8.76l-.71,1.42a2.94,2.94,0,0,1-.75,1c-1.62.54-2.07.32-2.51.11l-1.71-.84c-1.06-.53-2.17-1.09-3.36-1.61a15.16,15.16,0,0,0-16.83,2.57,15.35,15.35,0,0,0-4.57,16.31c.31,1.06.65,2,1,3s.65,1.89.89,2.74a2,2,0,0,1-1.39,2.71c-3.33,1.19-6.82,2.38-10.36,3.53a2.23,2.23,0,0,1-2.93-1.47c-.3-.8-.58-1.65-.88-2.56s-.66-2-1.06-3a15.15,15.15,0,0,0-13.44-10c-.47,0-.95-.06-1.41-.06A15,15,0,0,0,346.09,409c-.59,1.08-1.1,2.12-1.58,3.13-.3.62-.6,1.24-.92,1.85a2.41,2.41,0,0,1-3.55,1.25c-3.11-1.49-6.29-3-9.74-4.78-1.45-.72-2.1-1.53-1.14-3.53.3-.62.62-1.24.93-1.86.39-.77.78-1.55,1.15-2.33,3-6.17,2.09-12.7-2.34-17.46A15.43,15.43,0,0,0,312,381l-1.06.37c-1.53.52-3,1-4.32,1.34a2,2,0,0,1-2.49-1.37c-1.19-3.37-2.38-6.87-3.54-10.41a2,2,0,0,1,1.18-2.63c1-.45,2.23-.85,3.5-1.27l1.62-.54c6.58-2.27,10.57-7.43,10.95-14.14s-3-12.14-9.27-15.11c-1.5-.7-2.84-1.37-4.11-2a2.07,2.07,0,0,1-1.05-3c1.73-3.62,3.49-7.09,5.22-10.31a2.32,2.32,0,0,1,3.21-1C312.57,321.29,313.25,321.63,313.93,322Zm-17.58-6.65c-1.85,3.41-3.71,7.09-5.53,10.92a16.3,16.3,0,0,0-1.62,6.34c-.3-.34-.59-.69-.91-1-1.24-1.29-2.5-2.51-3.72-3.69-1-.95-1.95-1.89-2.9-2.86-2.5-2.54-3-4.87-1.74-8,1.35-3.36,3.42-4.84,6.94-5,1.55-.05,3.14,0,4.82,0,1.44,0,2.88,0,4.32,0a28.19,28.19,0,0,0,2.95-.23A16.44,16.44,0,0,0,296.35,315.32ZM73.8,270.2a8.43,8.43,0,0,1,8-8.56c2.15-.17,4.41-.15,6.8-.13h2.87c10,0,17.4-4.94,21-13.78s1.54-17.28-5.58-24.17c-2.06-2-3.92-3.86-5.67-5.68-3.58-3.73-3.6-8.69,0-12.33,4.94-5.06,9.63-9.65,14.33-14a9,9,0,0,1,12.61.21c1,.93,1.93,1.89,2.88,2.85,1.2,1.21,2.44,2.47,3.75,3.69,6.79,6.34,15.1,7.86,23.42,4.29S171.25,192,171.49,183c0-1.28,0-2.55,0-3.83a58.07,58.07,0,0,1,.35-7.76,8.25,8.25,0,0,1,8.42-7.14c6.06-.07,12.44-.07,19,0a8.53,8.53,0,0,1,8.62,7.54,59.46,59.46,0,0,1,.27,7.21c0,.95,0,1.9,0,2.84.14,10,5.15,17.63,13.75,21,8.79,3.42,17.35,1.49,24.11-5.42l.6-.61c1.79-1.84,3.49-3.58,5.26-5.21a9,9,0,0,1,12.4-.05c4.67,4.42,9.47,9.17,14.26,14.14,3.56,3.71,3.52,8.55-.12,12.36-1.1,1.15-2.26,2.27-3.49,3.46s-2.19,2.12-3.25,3.21A20.49,20.49,0,0,0,266.83,247c3,8.41,9.48,13.5,18.17,14.31,2.74.26,5.38.25,7.93.25,1,0,2.08,0,3.12,0,5.12.09,7.87,2.48,8.17,7.12a171.24,171.24,0,0,1,0,21.73c-.46,7.41-6.54,7.54-8.54,7.59-1.31,0-2.62,0-3.93,0-1.75,0-3.56,0-5.42,0-9.1.34-16,5.23-19.42,13.77-3.33,8.33-1.65,16.5,4.74,23,1,1.06,2.1,2.09,3.16,3.12s2.3,2.22,3.37,3.33c3.72,3.87,3.75,8.83.08,12.62-3.88,4-8,8-11.91,11.91l-2,1.93a8.39,8.39,0,0,1-4.92,2.59c-4.36,0-6.28-1-8-2.63-.81-.78-1.59-1.57-2.38-2.37-1.39-1.41-2.82-2.86-4.37-4.28-6.85-6.25-15.16-7.74-23.39-4.21A21.22,21.22,0,0,0,208,376.35c-.07,1.79-.06,3.52,0,5.2s0,3.55-.07,5.22a8.46,8.46,0,0,1-8.67,8.36c-6.1.09-12.46.09-18.91,0a8.76,8.76,0,0,1-8.86-8.81c-.06-1.58,0-3.19,0-4.89s0-3.48,0-5.29c-.29-8.86-5-15.71-13.26-19.29a22.21,22.21,0,0,0-8.89-1.94A21,21,0,0,0,135,360.76c-1.46,1.33-2.8,2.69-4.1,4-.86.88-1.73,1.75-2.61,2.6-4.13,3.95-9.39,4-13.41,0-4.24-4.15-8.57-8.46-13.24-13.18-4.16-4.22-4.12-9.1.11-13.38.86-.87,1.72-1.72,2.59-2.57,1-1,2.07-2,3.08-3.07,6.82-6.95,8.58-15.74,4.84-24.1-3.81-8.51-11.08-13.21-20.45-13.21H89.84a81.56,81.56,0,0,1-8.24-.23,8.42,8.42,0,0,1-7.8-8.51C73.72,282.92,73.72,276.54,73.8,270.2Z" fill="#251ac7"/><path d="M189.47,337.68h.17a58,58,0,0,0,.19-116h-.09a58,58,0,0,0-.27,116Zm-30.81-89.2a43.7,43.7,0,0,1,31.08-12.83h.07a44,44,0,1,1-.17,88h-.13a44.06,44.06,0,0,1-30.85-75.2Z" fill="#251ac7"/><path d="M363.72,392.08a36.28,36.28,0,0,0,11.63-1.91,36.85,36.85,0,0,0,23.19-46.59,36.76,36.76,0,1,0-69.64,23.55A36.85,36.85,0,0,0,363.72,392.08Zm-20.45-46.87a22.79,22.79,0,0,1,42,2.83,22.76,22.76,0,1,1-42-2.83Z" fill="#251ac7"/><path d="M328.55,238.67a7,7,0,0,0,6.26,3.87h15V271a7,7,0,0,0,14,0V235.54a7,7,0,0,0-7-7h-8l29.46-39.28,25.42,39.85h-7.5a7,7,0,0,0-7,7v35.75a7,7,0,0,0,14,0V243.11h13.27a7,7,0,0,0,5.91-10.77l-37.73-59.13a7,7,0,0,0-11.5-.43l-43.93,58.56A7,7,0,0,0,328.55,238.67Z" fill="#251ac7"/><path d="M250.34,140.34h15V157a7,7,0,0,0,14,0V133.34a7,7,0,0,0-7-7h-8L293.8,87.06l25.43,39.84h-7.51a7,7,0,0,0-7,7v78.84a7,7,0,0,0,14,0V140.9H332a7,7,0,0,0,5.9-10.77L300.17,71a7,7,0,0,0-11.5-.44l-43.93,58.57a7,7,0,0,0,5.6,11.2Z" fill="#251ac7"/></g></svg>