<svg id="Layer_1" data-name="Layer 1" xmlns="http://www.w3.org/2000/svg" viewBox="0 0 500 500"><title>3. role model</title><path d="M57.48,129.67a190.37,190.37,0,0,1,34,25.35c5.27-10.8,11.52-22.54,22.76-26.79-5-4.73-11.74-7-17.59-10.6S87.31,109,85.46,102.5C75.48,111.09,70.06,123.26,57.48,129.67Z" fill="#98f0f9"/><path d="M353.48,231.67a190.37,190.37,0,0,1,34,25.35c5.27-10.8,11.52-22.54,22.76-26.79-5-4.73-11.74-7-17.59-10.6s-9.33-8.61-11.18-15.13C371.48,213.09,366.06,225.26,353.48,231.67Z" fill="#98f0f9"/><path d="M246.11,385.93a14,14,0,0,0,1.93,4.43c3.18,4.2,9.58,3.44,14.71,2.25-5.58,4.56-4.13,13.29-2.17,20.22q3.24,11.44,6.49,22.9a45.62,45.62,0,0,0,3.87,10.38C274.72,452.74,281.48,457,288,461a306.11,306.11,0,0,1-15.22-50.26,10.49,10.49,0,0,1-.25-4.65c.47-1.92,2-3.4,3.39-4.76l30.43-29.24-40.15-.9c-3.16-.07-6.56-.22-9.1-2.11-2-1.51-3.17-3.89-4.24-6.18-4.92-10.48-9.17-26.06-17-34.45C224.1,342.23,246.11,371.4,246.11,385.93Z" fill="#98f0f9"/><path d="M246.9,273.4c3.58-.13,7.31-1.15,9.8-3.73,3.81-3.95,3.63-10.16,3.21-15.64q-.48-6.21-1-12.42c-8.73,2-17.56,4.08-26.53,4.69-5.69.38-15.41-2.42-17.75,4.8C210.67,263.49,238.07,273.7,246.9,273.4Z" fill="#98f0f9"/><path d="M236.94,189.61a6.69,6.69,0,0,0,1.71-.22c6.43-1.75,11.31-5.67,13.38-10.76,1.89-4.67,1.17-9.35.64-12.78l-2.81-18.22a6.5,6.5,0,0,0-12.85,2l2.81,18.22c.32,2,.71,4.56.16,5.9s-2.36,2.45-4.74,3.1a6.5,6.5,0,0,0,1.7,12.77Z" fill="#251ac7"/><path d="M261.52,199.13a6.51,6.51,0,0,0-9.19.26c-1.6,1.69-5.44,2-8.19,2.12-10.78.4-19-1.29-25.24-5.16a6.5,6.5,0,1,0-6.87,11c7.74,4.83,17.3,7.19,29.14,7.19,1.13,0,2.27,0,3.44-.07,5.46-.19,12.35-1.08,17.17-6.18A6.51,6.51,0,0,0,261.52,199.13Z" fill="#251ac7"/><path d="M198,155.28a6.18,6.18,0,0,0,.85.06,6.51,6.51,0,0,0,6.4-5.41,1.89,1.89,0,0,1,.45-.35,11.24,11.24,0,0,1,3.78-.87c3.39-.37,4.44.12,4.73.35a6.5,6.5,0,0,0,8-10.23c-4.6-3.6-10.27-3.47-14.14-3.05a22.59,22.59,0,0,0-8.61,2.39,13.39,13.39,0,0,0-7.08,9.82A6.5,6.5,0,0,0,198,155.28Z" fill="#251ac7"/><path d="M264,151.8a26.88,26.88,0,0,1,7.48-2.28c2.95-.45,5,.11,5.42.68A6.5,6.5,0,1,0,287.71,143c-3.44-5.2-10.25-7.59-18.22-6.37A39.74,39.74,0,0,0,258.42,140,6.5,6.5,0,1,0,264,151.8Z" fill="#251ac7"/><path d="M316,369.94a6.47,6.47,0,0,0-6.07-3.87l-49.77.92L241,325.82a6.5,6.5,0,0,0-11.95.4l-17.59,45.36-46.12,5.53a6.5,6.5,0,0,0-3.48,11.37l11.32,9.79,22.73,19.66-11.14,49.2a6.5,6.5,0,0,0,9.88,6.89l50.88-33,48.68,24.34a6.5,6.5,0,0,0,9-8.15l-18.53-48.18,12.93-13.72L314.81,377A6.47,6.47,0,0,0,316,369.94Zm-45,40,14,36.36-37-18.51a6.5,6.5,0,0,0-6.44.36L201,454.43,209.42,417a6.5,6.5,0,0,0-2.08-6.35l-25.88-22.38,35.4-4.25a6.49,6.49,0,0,0,5.28-4.1l13.5-34.8,14.55,31.19a6.48,6.48,0,0,0,6,3.75l38.55-.71-22.4,23.76A6.5,6.5,0,0,0,271,409.9Z" fill="#251ac7"/><path d="M432.22,377.9l-33,.61-12.69-27.19a6.5,6.5,0,0,0-11.95.4L362.9,381.85l-.44.06a197.51,197.51,0,0,0-6.75-37.22c-5-17.88-14.75-41.77-32.26-54.08-14-9.8-30.75-16.28-51.07-19.7a33.21,33.21,0,0,1-1-4,81.06,81.06,0,0,1-.29-24.38c1.27-.51,2.54-1.06,3.79-1.69,12.28-6.15,19.55-16.78,23.49-24.62,5.34-10.61,7.66-22.16,8.93-30.21a18.93,18.93,0,0,0,7.51-2.62,30,30,0,0,0,8.17-7.76c4.54-6,6.82-11.55,7-17.11a18.71,18.71,0,0,0-9.34-16.85,13.8,13.8,0,0,0-3.68-1.47c.05-.1.11-.2.16-.31a76.35,76.35,0,0,0,4-12.11c1.12-4.14,2.17-8.06,3.95-11.41a55.25,55.25,0,0,1,5.17-7.51c1-1.37,2.13-2.78,3.17-4.26a68.8,68.8,0,0,0,12.47-39,6.51,6.51,0,0,0-7.46-6.46c-3.64.54-7.32.9-11,1.1.47-.88.93-1.77,1.37-2.66A6.5,6.5,0,0,0,323,48.19h0l-17.28.07c1.45-5,2-10.91-.67-16.51a6.5,6.5,0,0,0-7.22-3.58c-14.36,3-29.63,3.43-44.39,3.81-4.08.1-8.31.21-12.47.37-18.63.73-40.24,2.74-59.24,12.17a57.62,57.62,0,0,0-14.3,9.66c-8.42,8-14,19.87-15.67,33.43-1.53,12.3.14,24.56,2,34.94,1.25,7.07,2.76,14.15,4.48,21.16-4.66,1.39-8.74,4.9-11.61,10-6.45,11.48-4.62,27.05,4.46,37.85,3.18,3.77,6.54,6.13,10.28,7.19a15.14,15.14,0,0,0,4.13.58,14.43,14.43,0,0,0,2.88-.3c1.06,6.65,2.7,13.47,6.14,19.77A52.33,52.33,0,0,0,190.23,236a70.23,70.23,0,0,0,9.42,5.73,48.38,48.38,0,0,1-3.15,18.41c-.43,1.11-.9,2.23-1.37,3.35-.69,1.64-1.41,3.36-2,5.16-6.91,1.46-14,4.78-20.31,7.78-2.5,1.18-4.86,2.29-7,3.2-1.26.53-2.58,1.06-3.93,1.61-7.55,3-16.12,6.5-22.21,12.59-23.91,23.92-29.92,74.85-28.21,103.47l-12.19.23L86.53,370.32a6.5,6.5,0,0,0-12,.4L62.9,400.85l-30.59,3.67a6.5,6.5,0,0,0-3.48,11.37L51.39,435.4,44,468.13A6.49,6.49,0,0,0,53.85,475L88,452.92l32.52,16.26a6.5,6.5,0,0,0,9-8.15l-12.32-32,19.94-21.15a6.5,6.5,0,0,0,1.21-7.09,6.47,6.47,0,0,0-6.06-3.86l-7.8.14c-1.81-27.82,4.41-74.05,24.4-94,4.21-4.21,11.47-7.14,17.88-9.73,1.41-.57,2.79-1.12,4.11-1.68,2.41-1,4.88-2.18,7.51-3.42a127.34,127.34,0,0,1,13.25-5.66,30.26,30.26,0,0,0,5.52,12.13,51.1,51.1,0,0,0,40,20.92h1.08A43.55,43.55,0,0,0,260,310.34c7.94-4.25,13-9.63,15-16a22.73,22.73,0,0,0,.89-9.58c15.8,3.28,29,8.71,40,16.46,22.63,15.9,31.93,59.79,33.56,82.21l-17.23,2.06a6.5,6.5,0,0,0-3.48,11.37l22.56,19.51L344,449.13a6.49,6.49,0,0,0,9.87,6.89l34.1-22.1,32.52,16.26a6.5,6.5,0,0,0,9-8.15l-12.32-32,19.94-21.15a6.5,6.5,0,0,0-4.85-11Zm-27.36,26.16a6.5,6.5,0,0,0-1.33,6.79l7.77,20.2-20.86-10.42A6.48,6.48,0,0,0,384,421l-23.82,15.44,4.75-21a6.51,6.51,0,0,0-2.09-6.35l-14.38-12.44,19.86-2.38a6.51,6.51,0,0,0,5.29-4.11l7.59-19.57,8,17.21a6.5,6.5,0,0,0,5.89,3.75h.12l21.77-.4ZM262.69,290.39c-1,3-3.94,5.88-8.8,8.49-5.06,2.72-9.85,3.77-16.6,3.68a37.83,37.83,0,0,1-29.63-15.5c-2.17-3-3.3-5.63-3.46-8-.21-3.16,1.31-6.76,2.91-10.57.53-1.24,1-2.49,1.53-3.74a61.22,61.22,0,0,0,3.9-18,73,73,0,0,0,20.2,2.89H234a118.82,118.82,0,0,0,22.94-3.16l.66-.15a94.77,94.77,0,0,0,1,22.6,63,63,0,0,0,2.36,8.94C262.47,282.74,263.8,286.92,262.69,290.39Zm-82.08-97.1c-1.13-8.48-.85-16.94-.56-25.89.27-8.31.55-16.91-.36-25.68a45.59,45.59,0,0,1-.11-8,52.87,52.87,0,0,1,9.09-11.86c5.2-5,13.2-7.88,22.54-8.07,9-.19,18.34,2,27.36,4.08l19.72,4.58c9.61,2.24,21.24,4.94,32.68,2.56a45.42,45.42,0,0,1,3.95,17.29,6.51,6.51,0,0,0,1.87,4.39,198.61,198.61,0,0,1-2.18,36.46c-1.79,11.6-4.21,20-7.83,27.2-4.33,8.6-10.61,15.29-17.71,18.84-4.54,2.28-9.84,3.54-14.88,4.63a106.55,106.55,0,0,1-20.42,2.87,60.22,60.22,0,0,1-36-11.25,39.73,39.73,0,0,1-12-12.86C182.73,206.85,181.49,199.93,180.61,193.29ZM161,183.18c-5.58-6.64-6.87-16.36-3.07-23.11,1.22-2.18,2.8-3.67,4.24-4a2,2,0,0,1,1.36.3,6.48,6.48,0,0,0,3.75,4.34c-.05,2.06-.12,4.14-.18,6.25-.2,6-.39,12-.14,18.22a6.1,6.1,0,0,0-1,1,2,2,0,0,1-1.08,0A9,9,0,0,1,161,183.18ZM253.72,45c13.14-.33,26.66-.68,40-2.83-.46,3.11-2,6.63-3.54,9.88a6.49,6.49,0,0,0,5.87,9.28h0l15.61-.06c-.4.6-.81,1.2-1.23,1.79a6.51,6.51,0,0,0,5,10.23,131.62,131.62,0,0,0,16.85-.33,55.69,55.69,0,0,1-9.54,24.14c-.89,1.26-1.85,2.51-2.86,3.83a65.16,65.16,0,0,0-6.35,9.35,65.35,65.35,0,0,0-5,14.11c-.64,2.36-1.25,4.63-2,6.78A58.29,58.29,0,0,0,299.91,114a6.48,6.48,0,0,0-5.61-3.21,6.39,6.39,0,0,0-2.26.41c-9.5,3.53-21.32.78-30.81-1.43l-19.72-4.58c-9.79-2.28-19.92-4.64-30.57-4.42-12.62.26-23.74,4.42-31.29,11.71a65.94,65.94,0,0,0-11.73,15.38q-.76-3.8-1.44-7.58c-1.66-9.43-3.18-20.49-1.87-31.08s5.48-19.67,11.73-25.61a44.76,44.76,0,0,1,11.12-7.43c16.8-8.34,36.71-10.15,54-10.83C245.5,45.19,249.68,45.08,253.72,45Zm55.36,126.58q.81-9.24.82-18.52l1-.11c1.72-.19,2.79-.29,3.27,0a5.81,5.81,0,0,1,2.8,5.2c-.07,2.75-1.49,5.89-4.32,9.6A21.09,21.09,0,0,1,309.08,171.55ZM90.44,439.63A6.48,6.48,0,0,0,84,440L60.18,455.43l4.75-21a6.51,6.51,0,0,0-2.09-6.35L48.46,415.68l19.86-2.38a6.51,6.51,0,0,0,5.29-4.11l7.59-19.57,8,17.21a6.53,6.53,0,0,0,6,3.75l21.77-.4-12.15,12.88a6.5,6.5,0,0,0-1.33,6.79l7.77,20.2Z" fill="#251ac7"/><path d="M341.14,238.05a6.5,6.5,0,0,0,5.44,5.21c14.7,2.15,28,13.55,32.4,27.74a6.52,6.52,0,0,0,5.82,4.57h.39a6.5,6.5,0,0,0,5.94-3.86c3.28-7.38,6.68-15,11.51-21.18s11-10.35,17.05-11.39a6.5,6.5,0,0,0,2.92-11.51,40.49,40.49,0,0,0-10.32-5.46c-1-.42-2.05-.83-3.05-1.28-11-4.93-16.7-13.59-23-24.4a6.5,6.5,0,0,0-11.85,1.41c-4,13.24-13.24,23.51-30.14,33.29A6.5,6.5,0,0,0,341.14,238.05Zm61.94-5.67a48.33,48.33,0,0,0-10.68,10.15A75.77,75.77,0,0,0,385.13,254a54.79,54.79,0,0,0-22.46-19.31,69.87,69.87,0,0,0,19-21C387,221.22,393.47,227.87,403.08,232.38Z" fill="#251ac7"/><path d="M50.58,139.26c14.7,2.15,28,13.55,32.4,27.74a6.52,6.52,0,0,0,5.82,4.57h.39a6.5,6.5,0,0,0,5.94-3.86c3.28-7.38,6.68-15,11.51-21.18s11-10.35,17-11.39a6.5,6.5,0,0,0,2.92-11.51,40.49,40.49,0,0,0-10.32-5.46c-1-.42-2.05-.83-3.05-1.28-11-4.93-16.7-13.59-23-24.4a6.5,6.5,0,0,0-11.85,1.41c-4,13.24-13.24,23.51-30.14,33.29a6.5,6.5,0,0,0,2.31,12.06Zm56.5-10.88A48.33,48.33,0,0,0,96.4,138.53,75.77,75.77,0,0,0,89.13,150a54.79,54.79,0,0,0-22.46-19.31,69.87,69.87,0,0,0,19-21C91,117.22,97.47,123.87,107.08,128.38Z" fill="#251ac7"/></svg>